#tb 0: 1000000/23976023
0,          0,          0,        1,  3686400, 0xa20a61ea
0,          1,          1,        1,  3686400, 0x2e1e1d16
0,          2,          2,        1,  3686400, 0xf30f9307
0,          3,          3,        1,  3686400, 0xb70182c9
0,          4,          4,        1,  3686400, 0x4638f7a8
0,          5,          5,        1,  3686400, 0xb56e8e25
0,          6,          6,        1,  3686400, 0xd195f517
0,          7,          7,        1,  3686400, 0x0cc37a5c
0,          8,          8,        1,  3686400, 0x7ff3426e
0,          9,          9,        1,  3686400, 0x565385f7
0,         10,         10,        1,  3686400, 0xf847da08
0,         11,         11,        1,  3686400, 0xca2302d3
0,         12,         12,        1,  3686400, 0xc8ec1342
0,         13,         13,        1,  3686400, 0x9f0152c0
0,         14,         14,        1,  3686400, 0x646f1b39
0,         15,         15,        1,  3686400, 0xbe203ddb
0,         16,         16,        1,  3686400, 0x1b1da68a
0,         17,         17,        1,  3686400, 0x7fa0f895
0,         18,         18,        1,  3686400, 0x621252af
0,         19,         19,        1,  3686400, 0x7f2de611
0,         20,         20,        1,  3686400, 0xd544a335
0,         21,         21,        1,  3686400, 0xd5a07071
0,         22,         22,        1,  3686400, 0x1dff4eea
0,         23,         23,        1,  3686400, 0xefeac466
0,         24,         24,        1,  3686400, 0x811e2075
0,         25,         25,        1,  3686400, 0xcd32c76d
0,         26,         26,        1,  3686400, 0x7327079c
0,         27,         27,        1,  3686400, 0xa0ada2cf
